<mxfile host="65bd71144e" modified="2020-11-16T19:09:03.819Z" agent="5.0 (X11; Linux x86_64) AppleWebKit/537.36 (KHTML, like Gecko) Code/1.51.1 Chrome/83.0.4103.122 Electron/9.3.3 Safari/537.36" version="13.6.5" etag="gD5LSxHXSAr_yEQzwQ80">
    <diagram id="k7UZ4-y_GmbhtiMM7jwF" name="ページ1">
        <mxGraphModel dx="568" dy="498" grid="1" gridSize="10" guides="1" tooltips="1" connect="1" arrows="1" fold="1" page="1" pageScale="1" pageWidth="1169" pageHeight="827" math="0" shadow="0">
            <root>
                <mxCell id="0"/>
                <mxCell id="1" parent="0"/>
                <mxCell id="2" value="w&lt;sub&gt;0&lt;/sub&gt;" style="endArrow=none;html=1;entryX=0;entryY=0;entryDx=0;entryDy=0;fontSize=24;align=center;" edge="1" parent="1" target="3">
                    <mxGeometry width="50" height="50" relative="1" as="geometry">
                        <mxPoint x="140" y="250" as="sourcePoint"/>
                        <mxPoint x="240" y="290" as="targetPoint"/>
                    </mxGeometry>
                </mxCell>
                <mxCell id="3" value="&lt;p style=&quot;font-size: 24px;&quot;&gt;&lt;span style=&quot;font-family: arial, sans-serif; font-size: 24px;&quot;&gt;θ&lt;/span&gt;&lt;/p&gt;" style="ellipse;whiteSpace=wrap;html=1;aspect=fixed;fontSize=24;align=center;" vertex="1" parent="1">
                    <mxGeometry x="240" y="280" width="80" height="80" as="geometry"/>
                </mxCell>
                <mxCell id="4" value="w&lt;sub&gt;i&lt;/sub&gt;" style="endArrow=none;html=1;exitX=0;exitY=0.5;exitDx=0;exitDy=0;fontSize=24;align=center;" edge="1" parent="1" source="3">
                    <mxGeometry width="50" height="50" relative="1" as="geometry">
                        <mxPoint x="270" y="280" as="sourcePoint"/>
                        <mxPoint x="140" y="320" as="targetPoint"/>
                    </mxGeometry>
                </mxCell>
                <mxCell id="5" value="" style="endArrow=none;dashed=1;html=1;dashPattern=1 3;strokeWidth=2;fontSize=24;align=center;" edge="1" parent="1">
                    <mxGeometry width="50" height="50" relative="1" as="geometry">
                        <mxPoint x="120" y="300" as="sourcePoint"/>
                        <mxPoint x="120" y="260" as="targetPoint"/>
                    </mxGeometry>
                </mxCell>
                <mxCell id="7" value="x&lt;sub&gt;0&lt;/sub&gt;" style="text;html=1;strokeColor=none;fillColor=none;align=center;verticalAlign=middle;whiteSpace=wrap;fontSize=24;" vertex="1" parent="1">
                    <mxGeometry x="100" y="230" width="40" height="20" as="geometry"/>
                </mxCell>
                <mxCell id="8" value="w&lt;sub&gt;n&lt;/sub&gt;" style="endArrow=none;html=1;exitX=0;exitY=1;exitDx=0;exitDy=0;fontSize=24;align=center;" edge="1" parent="1" source="3">
                    <mxGeometry width="50" height="50" relative="1" as="geometry">
                        <mxPoint x="250" y="330" as="sourcePoint"/>
                        <mxPoint x="140" y="390" as="targetPoint"/>
                    </mxGeometry>
                </mxCell>
                <mxCell id="9" value="" style="endArrow=none;dashed=1;html=1;dashPattern=1 3;strokeWidth=2;fontSize=24;align=center;" edge="1" parent="1">
                    <mxGeometry width="50" height="50" relative="1" as="geometry">
                        <mxPoint x="119.5" y="380" as="sourcePoint"/>
                        <mxPoint x="120" y="340" as="targetPoint"/>
                    </mxGeometry>
                </mxCell>
                <mxCell id="11" value="x&lt;sub&gt;i&lt;/sub&gt;" style="text;html=1;strokeColor=none;fillColor=none;align=center;verticalAlign=middle;whiteSpace=wrap;fontSize=24;" vertex="1" parent="1">
                    <mxGeometry x="100" y="310" width="40" height="20" as="geometry"/>
                </mxCell>
                <mxCell id="12" value="x&lt;sub&gt;n&lt;/sub&gt;" style="text;html=1;strokeColor=none;fillColor=none;align=center;verticalAlign=middle;whiteSpace=wrap;fontSize=24;" vertex="1" parent="1">
                    <mxGeometry x="100" y="390" width="40" height="20" as="geometry"/>
                </mxCell>
                <mxCell id="14" value="" style="endArrow=none;html=1;exitX=1;exitY=0.5;exitDx=0;exitDy=0;fontSize=24;align=center;" edge="1" parent="1" source="3" target="15">
                    <mxGeometry width="50" height="50" relative="1" as="geometry">
                        <mxPoint x="270" y="280" as="sourcePoint"/>
                        <mxPoint x="400" y="320" as="targetPoint"/>
                    </mxGeometry>
                </mxCell>
                <mxCell id="15" value="y" style="text;html=1;strokeColor=none;fillColor=none;align=center;verticalAlign=middle;whiteSpace=wrap;fontSize=24;" vertex="1" parent="1">
                    <mxGeometry x="400" y="310" width="40" height="20" as="geometry"/>
                </mxCell>
            </root>
        </mxGraphModel>
    </diagram>
</mxfile>
